<?xml version="1.0" encoding="UTF-8"?>
<svg id="output" xmlns="http://www.w3.org/2000/svg" width="323" height="210" viewBox="0 0 323 210">
      <defs>
        <!--
          Base clone shape — defined as a <symbol> so width/height on <use>
          controls sizing. Updated dynamically when the user selects a shape.
        -->
        <symbol id="base-dot" viewBox="0 0 2 2" preserveAspectRatio="xMidYMid meet"><circle cx="1" cy="1" r="1" fill="#000000"/></symbol>
      </defs>
    <rect width="323" height="210" fill="#f9f9f9"/><use href="#base-dot" x="30.91" y="46.51" width="8.38" height="8.38"/><use href="#base-dot" x="39.14" y="46.94" width="7.52" height="7.52"/><use href="#base-dot" x="47.43" y="47.43" width="6.54" height="6.54"/><use href="#base-dot" x="55.72" y="47.92" width="5.57" height="5.57"/><use href="#base-dot" x="64.03" y="48.43" width="4.54" height="4.54"/><use href="#base-dot" x="72.32" y="48.92" width="3.56" height="3.56"/><use href="#base-dot" x="80.52" y="49.32" width="2.75" height="2.75"/><use href="#base-dot" x="87.81" y="48.81" width="3.78" height="3.78"/><use href="#base-dot" x="95.12" y="48.32" width="4.76" height="4.76"/><use href="#base-dot" x="30.93" y="54.33" width="8.33" height="8.33"/><use href="#base-dot" x="39.11" y="54.71" width="7.57" height="7.57"/><use href="#base-dot" x="47.35" y="55.15" width="6.71" height="6.71"/><use href="#base-dot" x="55.58" y="55.58" width="5.84" height="5.84"/><use href="#base-dot" x="63.81" y="56.01" width="4.97" height="4.97"/><use href="#base-dot" x="72.05" y="56.45" width="4.11" height="4.11"/><use href="#base-dot" x="80.20" y="56.80" width="3.40" height="3.40"/><use href="#base-dot" x="87.57" y="56.37" width="4.27" height="4.27"/><use href="#base-dot" x="94.93" y="55.93" width="5.13" height="5.13"/><use href="#base-dot" x="258.60" y="55.80" width="5.41" height="5.41"/><use href="#base-dot" x="265.96" y="55.36" width="6.27" height="6.27"/><use href="#base-dot" x="55.23" y="63.03" width="6.54" height="6.54"/><use href="#base-dot" x="63.27" y="63.27" width="6.06" height="6.06"/><use href="#base-dot" x="71.34" y="63.54" width="5.51" height="5.51"/><use href="#base-dot" x="258.16" y="63.16" width="6.27" height="6.27"/><use href="#base-dot" x="265.69" y="62.89" width="6.81" height="6.81"/><use href="#base-dot" x="54.85" y="70.45" width="7.30" height="7.30"/><use href="#base-dot" x="62.76" y="70.56" width="7.09" height="7.09"/><use href="#base-dot" x="70.64" y="70.64" width="6.92" height="6.92"/><use href="#base-dot" x="124.75" y="70.15" width="7.90" height="7.90"/><use href="#base-dot" x="132.44" y="70.04" width="8.11" height="8.11"/><use href="#base-dot" x="140.16" y="69.96" width="8.28" height="8.28"/><use href="#base-dot" x="171.31" y="69.91" width="8.38" height="8.38"/><use href="#base-dot" x="179.19" y="69.99" width="8.22" height="8.22"/><use href="#base-dot" x="187.10" y="70.10" width="8.01" height="8.01"/><use href="#base-dot" x="218.68" y="70.48" width="7.25" height="7.25"/><use href="#base-dot" x="226.58" y="70.58" width="7.03" height="7.03"/><use href="#base-dot" x="234.47" y="70.67" width="6.87" height="6.87"/><use href="#base-dot" x="242.29" y="70.69" width="6.81" height="6.81"/><use href="#base-dot" x="250.01" y="70.61" width="6.98" height="6.98"/><use href="#base-dot" x="257.70" y="70.50" width="7.19" height="7.19"/><use href="#base-dot" x="265.40" y="70.39" width="7.41" height="7.41"/><use href="#base-dot" x="273.11" y="70.31" width="7.57" height="7.57"/><use href="#base-dot" x="280.81" y="70.21" width="7.79" height="7.79"/><use href="#base-dot" x="54.52" y="77.92" width="7.95" height="7.95"/><use href="#base-dot" x="62.27" y="77.87" width="8.06" height="8.06"/><use href="#base-dot" x="70.04" y="77.84" width="8.11" height="8.11"/><use href="#base-dot" x="109.18" y="77.98" width="7.84" height="7.84"/><use href="#base-dot" x="117.03" y="78.03" width="7.74" height="7.74"/><use href="#base-dot" x="124.86" y="78.06" width="7.68" height="7.68"/><use href="#base-dot" x="132.71" y="78.11" width="7.57" height="7.57"/><use href="#base-dot" x="140.57" y="78.17" width="7.46" height="7.46"/><use href="#base-dot" x="148.42" y="78.22" width="7.36" height="7.36"/><use href="#base-dot" x="179.54" y="78.14" width="7.52" height="7.52"/><use href="#base-dot" x="187.29" y="78.09" width="7.63" height="7.63"/><use href="#base-dot" x="195.06" y="78.06" width="7.68" height="7.68"/><use href="#base-dot" x="210.55" y="77.95" width="7.90" height="7.90"/><use href="#base-dot" x="218.32" y="77.92" width="7.95" height="7.95"/><use href="#base-dot" x="226.07" y="77.87" width="8.06" height="8.06"/><use href="#base-dot" x="241.62" y="77.82" width="8.17" height="8.17"/><use href="#base-dot" x="249.47" y="77.87" width="8.06" height="8.06"/><use href="#base-dot" x="257.30" y="77.90" width="8.01" height="8.01"/><use href="#base-dot" x="265.15" y="77.95" width="7.90" height="7.90"/><use href="#base-dot" x="273.01" y="78.01" width="7.79" height="7.79"/><use href="#base-dot" x="280.83" y="78.03" width="7.74" height="7.74"/><use href="#base-dot" x="54.17" y="85.37" width="8.66" height="8.66"/><use href="#base-dot" x="61.76" y="85.16" width="9.09" height="9.09"/><use href="#base-dot" x="69.34" y="84.94" width="9.52" height="9.52"/><use href="#base-dot" x="101.00" y="85.40" width="8.60" height="8.60"/><use href="#base-dot" x="109.02" y="85.62" width="8.17" height="8.17"/><use href="#base-dot" x="117.01" y="85.81" width="7.79" height="7.79"/><use href="#base-dot" x="125.02" y="86.02" width="7.36" height="7.36"/><use href="#base-dot" x="133.04" y="86.24" width="6.92" height="6.92"/><use href="#base-dot" x="141.06" y="86.46" width="6.49" height="6.49"/><use href="#base-dot" x="149.05" y="86.64" width="6.11" height="6.11"/><use href="#base-dot" x="157.03" y="86.83" width="5.73" height="5.73"/><use href="#base-dot" x="179.95" y="86.35" width="6.71" height="6.71"/><use href="#base-dot" x="187.53" y="86.13" width="7.14" height="7.14"/><use href="#base-dot" x="195.14" y="85.94" width="7.52" height="7.52"/><use href="#base-dot" x="210.31" y="85.51" width="8.38" height="8.38"/><use href="#base-dot" x="217.89" y="85.29" width="8.82" height="8.82"/><use href="#base-dot" x="256.86" y="85.26" width="8.87" height="8.87"/><use href="#base-dot" x="264.88" y="85.48" width="8.44" height="8.44"/><use href="#base-dot" x="53.79" y="92.79" width="9.41" height="9.41"/><use href="#base-dot" x="61.21" y="92.41" width="10.17" height="10.17"/><use href="#base-dot" x="68.63" y="92.03" width="10.93" height="10.93"/><use href="#base-dot" x="100.67" y="92.87" width="9.25" height="9.25"/><use href="#base-dot" x="108.85" y="93.25" width="8.49" height="8.49"/><use href="#base-dot" x="116.98" y="93.58" width="7.84" height="7.84"/><use href="#base-dot" x="149.70" y="95.09" width="4.81" height="4.81"/><use href="#base-dot" x="157.85" y="95.45" width="4.11" height="4.11"/><use href="#base-dot" x="187.75" y="94.15" width="6.71" height="6.71"/><use href="#base-dot" x="195.22" y="93.82" width="7.36" height="7.36"/><use href="#base-dot" x="202.64" y="93.44" width="8.11" height="8.11"/><use href="#base-dot" x="210.06" y="93.06" width="8.87" height="8.87"/><use href="#base-dot" x="217.48" y="92.68" width="9.63" height="9.63"/><use href="#base-dot" x="256.40" y="92.60" width="9.79" height="9.79"/><use href="#base-dot" x="264.58" y="92.98" width="9.04" height="9.04"/><use href="#base-dot" x="53.41" y="100.21" width="10.17" height="10.17"/><use href="#base-dot" x="60.67" y="99.67" width="11.26" height="11.26"/><use href="#base-dot" x="67.93" y="99.13" width="12.34" height="12.34"/><use href="#base-dot" x="100.32" y="100.32" width="9.96" height="9.96"/><use href="#base-dot" x="108.66" y="100.86" width="8.87" height="8.87"/><use href="#base-dot" x="116.95" y="101.35" width="7.90" height="7.90"/><use href="#base-dot" x="150.35" y="103.54" width="3.51" height="3.51"/><use href="#base-dot" x="158.63" y="104.03" width="2.53" height="2.53"/><use href="#base-dot" x="195.30" y="101.70" width="7.19" height="7.19"/><use href="#base-dot" x="202.56" y="101.16" width="8.28" height="8.28"/><use href="#base-dot" x="209.79" y="100.59" width="9.41" height="9.41"/><use href="#base-dot" x="255.94" y="99.94" width="10.71" height="10.71"/><use href="#base-dot" x="264.31" y="100.51" width="9.58" height="9.58"/><use href="#base-dot" x="53.79" y="108.39" width="9.41" height="9.41"/><use href="#base-dot" x="61.21" y="108.01" width="10.17" height="10.17"/><use href="#base-dot" x="68.63" y="107.63" width="10.93" height="10.93"/><use href="#base-dot" x="100.67" y="108.47" width="9.25" height="9.25"/><use href="#base-dot" x="108.85" y="108.85" width="8.49" height="8.49"/><use href="#base-dot" x="116.98" y="109.18" width="7.84" height="7.84"/><use href="#base-dot" x="125.16" y="109.56" width="7.09" height="7.09"/><use href="#base-dot" x="133.34" y="109.94" width="6.33" height="6.33"/><use href="#base-dot" x="141.52" y="110.32" width="5.57" height="5.57"/><use href="#base-dot" x="149.70" y="110.69" width="4.81" height="4.81"/><use href="#base-dot" x="157.85" y="111.05" width="4.11" height="4.11"/><use href="#base-dot" x="195.22" y="109.42" width="7.36" height="7.36"/><use href="#base-dot" x="202.64" y="109.04" width="8.11" height="8.11"/><use href="#base-dot" x="210.06" y="108.66" width="8.87" height="8.87"/><use href="#base-dot" x="256.40" y="108.20" width="9.79" height="9.79"/><use href="#base-dot" x="264.58" y="108.58" width="9.04" height="9.04"/><use href="#base-dot" x="54.12" y="116.52" width="8.76" height="8.76"/><use href="#base-dot" x="61.67" y="116.27" width="9.25" height="9.25"/><use href="#base-dot" x="69.26" y="116.06" width="9.69" height="9.69"/><use href="#base-dot" x="100.97" y="116.57" width="8.66" height="8.66"/><use href="#base-dot" x="108.99" y="116.79" width="8.22" height="8.22"/><use href="#base-dot" x="117.01" y="117.01" width="7.79" height="7.79"/><use href="#base-dot" x="187.56" y="117.36" width="7.09" height="7.09"/><use href="#base-dot" x="195.14" y="117.14" width="7.52" height="7.52"/><use href="#base-dot" x="202.72" y="116.92" width="7.95" height="7.95"/><use href="#base-dot" x="210.28" y="116.68" width="8.44" height="8.44"/><use href="#base-dot" x="256.81" y="116.41" width="8.98" height="8.98"/><use href="#base-dot" x="264.83" y="116.63" width="8.55" height="8.55"/><use href="#base-dot" x="54.47" y="124.67" width="8.06" height="8.06"/><use href="#base-dot" x="62.22" y="124.62" width="8.17" height="8.17"/><use href="#base-dot" x="69.93" y="124.53" width="8.33" height="8.33"/><use href="#base-dot" x="101.30" y="124.70" width="8.01" height="8.01"/><use href="#base-dot" x="109.15" y="124.75" width="7.90" height="7.90"/><use href="#base-dot" x="117.03" y="124.83" width="7.74" height="7.74"/><use href="#base-dot" x="148.50" y="125.10" width="7.19" height="7.19"/><use href="#base-dot" x="156.36" y="125.16" width="7.09" height="7.09"/><use href="#base-dot" x="187.31" y="124.91" width="7.57" height="7.57"/><use href="#base-dot" x="195.06" y="124.86" width="7.68" height="7.68"/><use href="#base-dot" x="202.81" y="124.81" width="7.79" height="7.79"/><use href="#base-dot" x="210.52" y="124.72" width="7.95" height="7.95"/><use href="#base-dot" x="218.27" y="124.67" width="8.06" height="8.06"/><use href="#base-dot" x="257.24" y="124.64" width="8.11" height="8.11"/><use href="#base-dot" x="265.12" y="124.72" width="7.95" height="7.95"/><use href="#base-dot" x="54.85" y="132.85" width="7.30" height="7.30"/><use href="#base-dot" x="62.76" y="132.96" width="7.09" height="7.09"/><use href="#base-dot" x="70.64" y="133.04" width="6.92" height="6.92"/><use href="#base-dot" x="101.62" y="132.82" width="7.36" height="7.36"/><use href="#base-dot" x="109.34" y="132.74" width="7.52" height="7.52"/><use href="#base-dot" x="117.06" y="132.66" width="7.68" height="7.68"/><use href="#base-dot" x="124.75" y="132.55" width="7.90" height="7.90"/><use href="#base-dot" x="132.44" y="132.44" width="8.11" height="8.11"/><use href="#base-dot" x="140.16" y="132.36" width="8.28" height="8.28"/><use href="#base-dot" x="147.85" y="132.25" width="8.49" height="8.49"/><use href="#base-dot" x="155.57" y="132.17" width="8.66" height="8.66"/><use href="#base-dot" x="179.19" y="132.39" width="8.22" height="8.22"/><use href="#base-dot" x="187.10" y="132.50" width="8.01" height="8.01"/><use href="#base-dot" x="194.98" y="132.58" width="7.84" height="7.84"/><use href="#base-dot" x="210.80" y="132.79" width="7.41" height="7.41"/><use href="#base-dot" x="218.68" y="132.88" width="7.25" height="7.25"/><use href="#base-dot" x="226.58" y="132.98" width="7.03" height="7.03"/><use href="#base-dot" x="257.70" y="132.90" width="7.19" height="7.19"/><use href="#base-dot" x="265.40" y="132.79" width="7.41" height="7.41"/><use href="#base-dot" x="273.11" y="132.71" width="7.57" height="7.57"/><use href="#base-dot" x="280.81" y="132.61" width="7.79" height="7.79"/><use href="#base-dot" x="55.23" y="141.03" width="6.54" height="6.54"/><use href="#base-dot" x="63.27" y="141.27" width="6.06" height="6.06"/><use href="#base-dot" x="71.34" y="141.54" width="5.51" height="5.51"/><use href="#base-dot" x="109.50" y="140.70" width="7.19" height="7.19"/><use href="#base-dot" x="117.06" y="140.46" width="7.68" height="7.68"/><use href="#base-dot" x="124.62" y="140.22" width="8.17" height="8.17"/><use href="#base-dot" x="132.15" y="139.95" width="8.71" height="8.71"/><use href="#base-dot" x="139.67" y="139.67" width="9.25" height="9.25"/><use href="#base-dot" x="147.20" y="139.40" width="9.79" height="9.79"/><use href="#base-dot" x="154.79" y="139.19" width="10.23" height="10.23"/><use href="#base-dot" x="178.81" y="139.81" width="8.98" height="8.98"/><use href="#base-dot" x="186.88" y="140.08" width="8.44" height="8.44"/><use href="#base-dot" x="219.11" y="141.11" width="6.38" height="6.38"/><use href="#base-dot" x="227.18" y="141.38" width="5.84" height="5.84"/><use href="#base-dot" x="258.16" y="141.16" width="6.27" height="6.27"/><use href="#base-dot" x="265.69" y="140.89" width="6.81" height="6.81"/><use href="#base-dot" x="273.25" y="140.65" width="7.30" height="7.30"/><use href="#base-dot" x="280.78" y="140.38" width="7.84" height="7.84"/><use href="#base-dot" x="124.45" y="147.85" width="8.49" height="8.49"/><use href="#base-dot" x="131.82" y="147.42" width="9.36" height="9.36"/><use href="#base-dot" x="139.19" y="146.99" width="10.23" height="10.23"/></svg>