<?xml version="1.0" encoding="UTF-8"?>
<svg id="output" xmlns="http://www.w3.org/2000/svg" width="226" height="210" viewBox="0 0 226 210">
      <defs>
        <!--
          Base clone shape — defined as a <symbol> so width/height on <use>
          controls sizing. Updated dynamically when the user selects a shape.
        -->
        <symbol id="base-dot" viewBox="0 0 2 2" preserveAspectRatio="xMidYMid meet"><circle cx="1" cy="1" r="1" fill="#000000"/></symbol>
      </defs>
    <rect width="226" height="210" fill="#f9f9f9"/><use href="#base-dot" x="144.06" y="48.06" width="2.89" height="2.89"/><use href="#base-dot" x="150.27" y="48.27" width="2.47" height="2.47"/><use href="#base-dot" x="153.37" y="48.37" width="2.27" height="2.27"/><use href="#base-dot" x="156.47" y="48.47" width="2.07" height="2.07"/><use href="#base-dot" x="144.07" y="51.07" width="2.86" height="2.86"/><use href="#base-dot" x="147.19" y="51.19" width="2.62" height="2.62"/><use href="#base-dot" x="153.42" y="51.42" width="2.16" height="2.16"/><use href="#base-dot" x="159.65" y="51.65" width="1.69" height="1.69"/><use href="#base-dot" x="137.85" y="53.85" width="3.30" height="3.30"/><use href="#base-dot" x="140.95" y="53.95" width="3.11" height="3.11"/><use href="#base-dot" x="144.06" y="54.06" width="2.89" height="2.89"/><use href="#base-dot" x="147.17" y="54.17" width="2.66" height="2.66"/><use href="#base-dot" x="150.28" y="54.28" width="2.44" height="2.44"/><use href="#base-dot" x="153.39" y="54.39" width="2.22" height="2.22"/><use href="#base-dot" x="137.86" y="56.86" width="3.28" height="3.28"/><use href="#base-dot" x="140.95" y="56.95" width="3.11" height="3.11"/><use href="#base-dot" x="144.05" y="57.05" width="2.91" height="2.91"/><use href="#base-dot" x="147.13" y="57.13" width="2.73" height="2.73"/><use href="#base-dot" x="150.23" y="57.23" width="2.53" height="2.53"/><use href="#base-dot" x="159.52" y="57.52" width="1.96" height="1.96"/><use href="#base-dot" x="137.87" y="59.87" width="3.26" height="3.26"/><use href="#base-dot" x="140.95" y="59.95" width="3.11" height="3.11"/><use href="#base-dot" x="147.10" y="60.10" width="2.80" height="2.80"/><use href="#base-dot" x="153.27" y="60.27" width="2.47" height="2.47"/><use href="#base-dot" x="156.34" y="60.34" width="2.31" height="2.31"/><use href="#base-dot" x="159.43" y="60.43" width="2.14" height="2.14"/><use href="#base-dot" x="134.80" y="62.80" width="3.39" height="3.39"/><use href="#base-dot" x="137.87" y="62.87" width="3.26" height="3.26"/><use href="#base-dot" x="140.95" y="62.95" width="3.11" height="3.11"/><use href="#base-dot" x="144.01" y="63.01" width="2.97" height="2.97"/><use href="#base-dot" x="150.15" y="63.15" width="2.71" height="2.71"/><use href="#base-dot" x="153.21" y="63.21" width="2.58" height="2.58"/><use href="#base-dot" x="156.28" y="63.28" width="2.44" height="2.44"/><use href="#base-dot" x="159.34" y="63.34" width="2.31" height="2.31"/><use href="#base-dot" x="134.84" y="65.84" width="3.33" height="3.33"/><use href="#base-dot" x="137.88" y="65.88" width="3.24" height="3.24"/><use href="#base-dot" x="140.94" y="65.94" width="3.13" height="3.13"/><use href="#base-dot" x="143.99" y="65.99" width="3.02" height="3.02"/><use href="#base-dot" x="147.05" y="66.05" width="2.91" height="2.91"/><use href="#base-dot" x="150.10" y="66.10" width="2.80" height="2.80"/><use href="#base-dot" x="153.16" y="66.16" width="2.69" height="2.69"/><use href="#base-dot" x="156.20" y="66.20" width="2.60" height="2.60"/><use href="#base-dot" x="159.26" y="66.26" width="2.49" height="2.49"/><use href="#base-dot" x="162.31" y="66.31" width="2.38" height="2.38"/><use href="#base-dot" x="137.89" y="68.89" width="3.22" height="3.22"/><use href="#base-dot" x="140.94" y="68.94" width="3.13" height="3.13"/><use href="#base-dot" x="143.98" y="68.98" width="3.04" height="3.04"/><use href="#base-dot" x="147.01" y="69.01" width="2.97" height="2.97"/><use href="#base-dot" x="153.09" y="69.09" width="2.82" height="2.82"/><use href="#base-dot" x="159.18" y="69.18" width="2.64" height="2.64"/><use href="#base-dot" x="162.21" y="69.21" width="2.58" height="2.58"/><use href="#base-dot" x="165.26" y="69.26" width="2.49" height="2.49"/><use href="#base-dot" x="57.16" y="72.16" width="2.69" height="2.69"/><use href="#base-dot" x="60.13" y="72.13" width="2.73" height="2.73"/><use href="#base-dot" x="63.10" y="72.10" width="2.80" height="2.80"/><use href="#base-dot" x="66.08" y="72.08" width="2.84" height="2.84"/><use href="#base-dot" x="69.06" y="72.06" width="2.89" height="2.89"/><use href="#base-dot" x="72.02" y="72.02" width="2.95" height="2.95"/><use href="#base-dot" x="143.96" y="71.96" width="3.08" height="3.08"/><use href="#base-dot" x="156.06" y="72.06" width="2.89" height="2.89"/><use href="#base-dot" x="159.09" y="72.09" width="2.82" height="2.82"/><use href="#base-dot" x="162.11" y="72.11" width="2.77" height="2.77"/><use href="#base-dot" x="165.15" y="72.15" width="2.71" height="2.71"/><use href="#base-dot" x="48.01" y="75.01" width="2.97" height="2.97"/><use href="#base-dot" x="51.02" y="75.02" width="2.95" height="2.95"/><use href="#base-dot" x="54.04" y="75.04" width="2.93" height="2.93"/><use href="#base-dot" x="57.04" y="75.04" width="2.93" height="2.93"/><use href="#base-dot" x="60.02" y="75.02" width="2.95" height="2.95"/><use href="#base-dot" x="63.01" y="75.01" width="2.97" height="2.97"/><use href="#base-dot" x="66.00" y="75.00" width="3.00" height="3.00"/><use href="#base-dot" x="68.99" y="74.99" width="3.02" height="3.02"/><use href="#base-dot" x="71.97" y="74.97" width="3.06" height="3.06"/><use href="#base-dot" x="77.95" y="74.95" width="3.11" height="3.11"/><use href="#base-dot" x="80.94" y="74.94" width="3.13" height="3.13"/><use href="#base-dot" x="131.89" y="74.89" width="3.22" height="3.22"/><use href="#base-dot" x="134.90" y="74.90" width="3.19" height="3.19"/><use href="#base-dot" x="140.93" y="74.92" width="3.15" height="3.15"/><use href="#base-dot" x="152.98" y="74.98" width="3.04" height="3.04"/><use href="#base-dot" x="155.99" y="74.99" width="3.02" height="3.02"/><use href="#base-dot" x="159.00" y="75.00" width="3.00" height="3.00"/><use href="#base-dot" x="162.01" y="75.01" width="2.97" height="2.97"/><use href="#base-dot" x="165.02" y="75.02" width="2.95" height="2.95"/><use href="#base-dot" x="44.91" y="77.91" width="3.17" height="3.17"/><use href="#base-dot" x="47.91" y="77.91" width="3.17" height="3.17"/><use href="#base-dot" x="50.91" y="77.91" width="3.17" height="3.17"/><use href="#base-dot" x="59.91" y="77.91" width="3.17" height="3.17"/><use href="#base-dot" x="62.91" y="77.91" width="3.17" height="3.17"/><use href="#base-dot" x="65.91" y="77.91" width="3.17" height="3.17"/><use href="#base-dot" x="68.91" y="77.91" width="3.17" height="3.17"/><use href="#base-dot" x="71.92" y="77.92" width="3.15" height="3.15"/><use href="#base-dot" x="74.92" y="77.92" width="3.15" height="3.15"/><use href="#base-dot" x="77.92" y="77.92" width="3.15" height="3.15"/><use href="#base-dot" x="80.92" y="77.92" width="3.15" height="3.15"/><use href="#base-dot" x="86.92" y="77.92" width="3.15" height="3.15"/><use href="#base-dot" x="134.93" y="77.92" width="3.15" height="3.15"/><use href="#base-dot" x="140.93" y="77.92" width="3.15" height="3.15"/><use href="#base-dot" x="143.93" y="77.92" width="3.15" height="3.15"/><use href="#base-dot" x="146.93" y="77.92" width="3.15" height="3.15"/><use href="#base-dot" x="149.93" y="77.92" width="3.15" height="3.15"/><use href="#base-dot" x="155.91" y="77.91" width="3.17" height="3.17"/><use href="#base-dot" x="158.91" y="77.91" width="3.17" height="3.17"/><use href="#base-dot" x="161.91" y="77.91" width="3.17" height="3.17"/><use href="#base-dot" x="164.91" y="77.91" width="3.17" height="3.17"/><use href="#base-dot" x="167.91" y="77.91" width="3.17" height="3.17"/><use href="#base-dot" x="41.85" y="80.85" width="3.30" height="3.30"/><use href="#base-dot" x="44.84" y="80.84" width="3.33" height="3.33"/><use href="#base-dot" x="47.83" y="80.83" width="3.35" height="3.35"/><use href="#base-dot" x="53.79" y="80.79" width="3.41" height="3.41"/><use href="#base-dot" x="56.79" y="80.79" width="3.41" height="3.41"/><use href="#base-dot" x="59.80" y="80.80" width="3.39" height="3.39"/><use href="#base-dot" x="62.83" y="80.83" width="3.35" height="3.35"/><use href="#base-dot" x="68.85" y="80.85" width="3.30" height="3.30"/><use href="#base-dot" x="74.88" y="80.88" width="3.24" height="3.24"/><use href="#base-dot" x="77.89" y="80.89" width="3.22" height="3.22"/><use href="#base-dot" x="80.91" y="80.91" width="3.17" height="3.17"/><use href="#base-dot" x="83.92" y="80.92" width="3.15" height="3.15"/><use href="#base-dot" x="86.94" y="80.94" width="3.13" height="3.13"/><use href="#base-dot" x="89.96" y="80.96" width="3.08" height="3.08"/><use href="#base-dot" x="128.98" y="80.98" width="3.04" height="3.04"/><use href="#base-dot" x="131.97" y="80.97" width="3.06" height="3.06"/><use href="#base-dot" x="134.95" y="80.95" width="3.11" height="3.11"/><use href="#base-dot" x="140.93" y="80.92" width="3.15" height="3.15"/><use href="#base-dot" x="143.90" y="80.90" width="3.19" height="3.19"/><use href="#base-dot" x="146.89" y="80.89" width="3.22" height="3.22"/><use href="#base-dot" x="152.86" y="80.86" width="3.28" height="3.28"/><use href="#base-dot" x="161.81" y="80.81" width="3.37" height="3.37"/><use href="#base-dot" x="164.80" y="80.80" width="3.39" height="3.39"/><use href="#base-dot" x="167.79" y="80.79" width="3.41" height="3.41"/><use href="#base-dot" x="41.78" y="83.78" width="3.44" height="3.44"/><use href="#base-dot" x="47.73" y="83.73" width="3.55" height="3.55"/><use href="#base-dot" x="50.70" y="83.70" width="3.59" height="3.59"/><use href="#base-dot" x="53.67" y="83.67" width="3.66" height="3.66"/><use href="#base-dot" x="59.70" y="83.70" width="3.59" height="3.59"/><use href="#base-dot" x="62.73" y="83.73" width="3.55" height="3.55"/><use href="#base-dot" x="65.76" y="83.76" width="3.48" height="3.48"/><use href="#base-dot" x="71.81" y="83.81" width="3.37" height="3.37"/><use href="#base-dot" x="74.84" y="83.84" width="3.33" height="3.33"/><use href="#base-dot" x="77.87" y="83.87" width="3.26" height="3.26"/><use href="#base-dot" x="80.90" y="83.90" width="3.19" height="3.19"/><use href="#base-dot" x="83.92" y="83.92" width="3.15" height="3.15"/><use href="#base-dot" x="129.04" y="84.04" width="2.93" height="2.93"/><use href="#base-dot" x="132.00" y="84.00" width="3.00" height="3.00"/><use href="#base-dot" x="134.98" y="83.98" width="3.04" height="3.04"/><use href="#base-dot" x="137.95" y="83.95" width="3.11" height="3.11"/><use href="#base-dot" x="140.91" y="83.91" width="3.17" height="3.17"/><use href="#base-dot" x="143.89" y="83.89" width="3.22" height="3.22"/><use href="#base-dot" x="152.80" y="83.80" width="3.39" height="3.39"/><use href="#base-dot" x="158.75" y="83.75" width="3.50" height="3.50"/><use href="#base-dot" x="161.72" y="83.72" width="3.57" height="3.57"/><use href="#base-dot" x="38.76" y="86.76" width="3.48" height="3.48"/><use href="#base-dot" x="41.72" y="86.72" width="3.57" height="3.57"/><use href="#base-dot" x="44.67" y="86.67" width="3.66" height="3.66"/><use href="#base-dot" x="47.64" y="86.64" width="3.72" height="3.72"/><use href="#base-dot" x="50.59" y="86.59" width="3.81" height="3.81"/><use href="#base-dot" x="56.55" y="86.55" width="3.90" height="3.90"/><use href="#base-dot" x="71.76" y="86.76" width="3.48" height="3.48"/><use href="#base-dot" x="74.80" y="86.80" width="3.39" height="3.39"/><use href="#base-dot" x="77.85" y="86.85" width="3.30" height="3.30"/><use href="#base-dot" x="80.89" y="86.89" width="3.22" height="3.22"/><use href="#base-dot" x="83.92" y="86.92" width="3.15" height="3.15"/><use href="#base-dot" x="86.97" y="86.97" width="3.06" height="3.06"/><use href="#base-dot" x="90.01" y="87.01" width="2.97" height="2.97"/><use href="#base-dot" x="93.06" y="87.06" width="2.89" height="2.89"/><use href="#base-dot" x="132.04" y="87.04" width="2.93" height="2.93"/><use href="#base-dot" x="135.00" y="87.00" width="3.00" height="3.00"/><use href="#base-dot" x="137.96" y="86.96" width="3.08" height="3.08"/><use href="#base-dot" x="140.91" y="86.91" width="3.17" height="3.17"/><use href="#base-dot" x="143.87" y="86.87" width="3.26" height="3.26"/><use href="#base-dot" x="152.75" y="86.75" width="3.50" height="3.50"/><use href="#base-dot" x="155.70" y="86.70" width="3.59" height="3.59"/><use href="#base-dot" x="158.66" y="86.66" width="3.68" height="3.68"/><use href="#base-dot" x="164.58" y="86.58" width="3.83" height="3.83"/><use href="#base-dot" x="167.54" y="86.54" width="3.92" height="3.92"/><use href="#base-dot" x="170.56" y="86.56" width="3.88" height="3.88"/><use href="#base-dot" x="35.76" y="89.76" width="3.48" height="3.48"/><use href="#base-dot" x="38.70" y="89.70" width="3.59" height="3.59"/><use href="#base-dot" x="41.65" y="89.65" width="3.70" height="3.70"/><use href="#base-dot" x="47.54" y="89.54" width="3.92" height="3.92"/><use href="#base-dot" x="50.48" y="89.48" width="4.03" height="4.03"/><use href="#base-dot" x="53.43" y="89.43" width="4.14" height="4.14"/><use href="#base-dot" x="77.81" y="89.81" width="3.37" height="3.37"/><use href="#base-dot" x="80.87" y="89.87" width="3.26" height="3.26"/><use href="#base-dot" x="83.92" y="89.92" width="3.15" height="3.15"/><use href="#base-dot" x="90.05" y="90.05" width="2.91" height="2.91"/><use href="#base-dot" x="93.10" y="90.10" width="2.80" height="2.80"/><use href="#base-dot" x="129.13" y="90.13" width="2.73" height="2.73"/><use href="#base-dot" x="132.08" y="90.08" width="2.84" height="2.84"/><use href="#base-dot" x="140.91" y="89.91" width="3.17" height="3.17"/><use href="#base-dot" x="143.86" y="89.86" width="3.28" height="3.28"/><use href="#base-dot" x="155.63" y="89.63" width="3.75" height="3.75"/><use href="#base-dot" x="161.52" y="89.52" width="3.97" height="3.97"/><use href="#base-dot" x="164.46" y="89.46" width="4.08" height="4.08"/><use href="#base-dot" x="167.41" y="89.41" width="4.19" height="4.19"/><use href="#base-dot" x="170.45" y="89.45" width="4.10" height="4.10"/><use href="#base-dot" x="35.73" y="92.73" width="3.55" height="3.55"/><use href="#base-dot" x="38.65" y="92.65" width="3.70" height="3.70"/><use href="#base-dot" x="41.58" y="92.58" width="3.83" height="3.83"/><use href="#base-dot" x="44.52" y="92.52" width="3.97" height="3.97"/><use href="#base-dot" x="50.37" y="92.37" width="4.25" height="4.25"/><use href="#base-dot" x="93.13" y="93.13" width="2.73" height="2.73"/><use href="#base-dot" x="132.11" y="93.11" width="2.77" height="2.77"/><use href="#base-dot" x="135.05" y="93.05" width="2.91" height="2.91"/><use href="#base-dot" x="137.98" y="92.98" width="3.04" height="3.04"/><use href="#base-dot" x="140.90" y="92.90" width="3.19" height="3.19"/><use href="#base-dot" x="155.56" y="92.56" width="3.88" height="3.88"/><use href="#base-dot" x="158.49" y="92.49" width="4.01" height="4.01"/><use href="#base-dot" x="161.42" y="92.42" width="4.16" height="4.16"/><use href="#base-dot" x="164.35" y="92.35" width="4.30" height="4.30"/><use href="#base-dot" x="167.29" y="92.29" width="4.43" height="4.43"/><use href="#base-dot" x="170.33" y="92.33" width="4.34" height="4.34"/><use href="#base-dot" x="173.40" y="92.40" width="4.21" height="4.21"/><use href="#base-dot" x="77.77" y="95.77" width="3.46" height="3.46"/><use href="#base-dot" x="80.85" y="95.85" width="3.30" height="3.30"/><use href="#base-dot" x="87.01" y="96.01" width="2.97" height="2.97"/><use href="#base-dot" x="90.10" y="96.10" width="2.80" height="2.80"/><use href="#base-dot" x="93.18" y="96.18" width="2.64" height="2.64"/><use href="#base-dot" x="126.32" y="96.32" width="2.36" height="2.36"/><use href="#base-dot" x="129.23" y="96.23" width="2.53" height="2.53"/><use href="#base-dot" x="132.16" y="96.16" width="2.69" height="2.69"/><use href="#base-dot" x="137.99" y="95.99" width="3.02" height="3.02"/><use href="#base-dot" x="140.90" y="95.90" width="3.19" height="3.19"/><use href="#base-dot" x="155.48" y="95.48" width="4.03" height="4.03"/><use href="#base-dot" x="158.41" y="95.41" width="4.19" height="4.19"/><use href="#base-dot" x="161.32" y="95.32" width="4.36" height="4.36"/><use href="#base-dot" x="164.24" y="95.24" width="4.52" height="4.52"/><use href="#base-dot" x="167.15" y="95.15" width="4.69" height="4.69"/><use href="#base-dot" x="170.21" y="95.21" width="4.58" height="4.58"/><use href="#base-dot" x="173.30" y="95.30" width="4.41" height="4.41"/><use href="#base-dot" x="83.94" y="98.94" width="3.13" height="3.13"/><use href="#base-dot" x="87.02" y="99.02" width="2.95" height="2.95"/><use href="#base-dot" x="90.12" y="99.12" width="2.75" height="2.75"/><use href="#base-dot" x="93.22" y="99.22" width="2.55" height="2.55"/><use href="#base-dot" x="123.48" y="99.48" width="2.05" height="2.05"/><use href="#base-dot" x="126.39" y="99.39" width="2.22" height="2.22"/><use href="#base-dot" x="129.29" y="99.29" width="2.42" height="2.42"/><use href="#base-dot" x="135.09" y="99.09" width="2.82" height="2.82"/><use href="#base-dot" x="138.00" y="99.00" width="3.00" height="3.00"/><use href="#base-dot" x="140.90" y="98.90" width="3.19" height="3.19"/><use href="#base-dot" x="161.22" y="98.22" width="4.56" height="4.56"/><use href="#base-dot" x="164.13" y="98.13" width="4.74" height="4.74"/><use href="#base-dot" x="167.03" y="98.03" width="4.94" height="4.94"/><use href="#base-dot" x="170.10" y="98.10" width="4.80" height="4.80"/><use href="#base-dot" x="173.20" y="98.20" width="4.61" height="4.61"/><use href="#base-dot" x="77.72" y="101.72" width="3.57" height="3.57"/><use href="#base-dot" x="80.83" y="101.83" width="3.35" height="3.35"/><use href="#base-dot" x="93.27" y="102.27" width="2.47" height="2.47"/><use href="#base-dot" x="123.56" y="102.56" width="1.87" height="1.87"/><use href="#base-dot" x="126.45" y="102.45" width="2.09" height="2.09"/><use href="#base-dot" x="129.34" y="102.34" width="2.31" height="2.31"/><use href="#base-dot" x="132.23" y="102.23" width="2.53" height="2.53"/><use href="#base-dot" x="135.12" y="102.12" width="2.75" height="2.75"/><use href="#base-dot" x="138.01" y="102.01" width="2.97" height="2.97"/><use href="#base-dot" x="158.23" y="101.23" width="4.54" height="4.54"/><use href="#base-dot" x="161.12" y="101.12" width="4.76" height="4.76"/><use href="#base-dot" x="164.01" y="101.01" width="4.98" height="4.98"/><use href="#base-dot" x="166.90" y="100.90" width="5.20" height="5.20"/><use href="#base-dot" x="173.09" y="101.09" width="4.83" height="4.83"/><use href="#base-dot" x="52.90" y="103.90" width="5.20" height="5.20"/><use href="#base-dot" x="55.90" y="103.90" width="5.20" height="5.20"/><use href="#base-dot" x="59.02" y="104.02" width="4.96" height="4.96"/><use href="#base-dot" x="62.13" y="104.13" width="4.74" height="4.74"/><use href="#base-dot" x="65.24" y="104.24" width="4.52" height="4.52"/><use href="#base-dot" x="68.36" y="104.36" width="4.28" height="4.28"/><use href="#base-dot" x="71.47" y="104.47" width="4.05" height="4.05"/><use href="#base-dot" x="74.59" y="104.59" width="3.81" height="3.81"/><use href="#base-dot" x="77.70" y="104.70" width="3.59" height="3.59"/><use href="#base-dot" x="80.81" y="104.81" width="3.37" height="3.37"/><use href="#base-dot" x="87.05" y="105.05" width="2.91" height="2.91"/><use href="#base-dot" x="90.17" y="105.17" width="2.66" height="2.66"/><use href="#base-dot" x="93.28" y="105.28" width="2.44" height="2.44"/><use href="#base-dot" x="120.70" y="105.70" width="1.61" height="1.61"/><use href="#base-dot" x="135.12" y="105.12" width="2.75" height="2.75"/><use href="#base-dot" x="138.01" y="105.01" width="2.97" height="2.97"/><use href="#base-dot" x="158.21" y="104.21" width="4.58" height="4.58"/><use href="#base-dot" x="161.09" y="104.09" width="4.83" height="4.83"/><use href="#base-dot" x="163.98" y="103.98" width="5.05" height="5.05"/><use href="#base-dot" x="166.87" y="103.87" width="5.27" height="5.27"/><use href="#base-dot" x="169.94" y="103.94" width="5.11" height="5.11"/><use href="#base-dot" x="173.05" y="104.05" width="4.89" height="4.89"/><use href="#base-dot" x="176.16" y="104.16" width="4.67" height="4.67"/><use href="#base-dot" x="44.33" y="107.33" width="4.34" height="4.34"/><use href="#base-dot" x="47.22" y="107.22" width="4.56" height="4.56"/><use href="#base-dot" x="50.12" y="107.12" width="4.76" height="4.76"/><use href="#base-dot" x="53.02" y="107.02" width="4.96" height="4.96"/><use href="#base-dot" x="56.02" y="107.02" width="4.96" height="4.96"/><use href="#base-dot" x="59.12" y="107.12" width="4.76" height="4.76"/><use href="#base-dot" x="62.22" y="107.22" width="4.56" height="4.56"/><use href="#base-dot" x="68.43" y="107.43" width="4.14" height="4.14"/><use href="#base-dot" x="74.63" y="107.63" width="3.75" height="3.75"/><use href="#base-dot" x="77.73" y="107.73" width="3.55" height="3.55"/><use href="#base-dot" x="80.84" y="107.84" width="3.33" height="3.33"/><use href="#base-dot" x="83.94" y="107.94" width="3.13" height="3.13"/><use href="#base-dot" x="90.13" y="108.13" width="2.73" height="2.73"/><use href="#base-dot" x="93.23" y="108.23" width="2.53" height="2.53"/><use href="#base-dot" x="120.61" y="108.61" width="1.78" height="1.78"/><use href="#base-dot" x="123.51" y="108.51" width="1.98" height="1.98"/><use href="#base-dot" x="135.10" y="108.10" width="2.80" height="2.80"/><use href="#base-dot" x="138.00" y="108.00" width="3.00" height="3.00"/><use href="#base-dot" x="161.19" y="107.19" width="4.63" height="4.63"/><use href="#base-dot" x="164.09" y="107.09" width="4.83" height="4.83"/><use href="#base-dot" x="166.99" y="106.99" width="5.02" height="5.02"/><use href="#base-dot" x="170.05" y="107.05" width="4.89" height="4.89"/><use href="#base-dot" x="173.15" y="107.15" width="4.69" height="4.69"/><use href="#base-dot" x="176.26" y="107.26" width="4.47" height="4.47"/><use href="#base-dot" x="41.49" y="110.49" width="4.01" height="4.01"/><use href="#base-dot" x="44.41" y="110.41" width="4.19" height="4.19"/><use href="#base-dot" x="50.23" y="110.23" width="4.54" height="4.54"/><use href="#base-dot" x="53.14" y="110.14" width="4.72" height="4.72"/><use href="#base-dot" x="56.14" y="110.14" width="4.72" height="4.72"/><use href="#base-dot" x="59.23" y="110.23" width="4.54" height="4.54"/><use href="#base-dot" x="62.32" y="110.32" width="4.36" height="4.36"/><use href="#base-dot" x="65.41" y="110.41" width="4.19" height="4.19"/><use href="#base-dot" x="68.49" y="110.49" width="4.01" height="4.01"/><use href="#base-dot" x="71.58" y="110.58" width="3.83" height="3.83"/><use href="#base-dot" x="74.67" y="110.67" width="3.66" height="3.66"/><use href="#base-dot" x="77.76" y="110.76" width="3.48" height="3.48"/><use href="#base-dot" x="80.85" y="110.85" width="3.30" height="3.30"/><use href="#base-dot" x="83.94" y="110.94" width="3.13" height="3.13"/><use href="#base-dot" x="87.02" y="111.02" width="2.95" height="2.95"/><use href="#base-dot" x="90.11" y="111.11" width="2.77" height="2.77"/><use href="#base-dot" x="93.19" y="111.19" width="2.62" height="2.62"/><use href="#base-dot" x="120.52" y="111.52" width="1.96" height="1.96"/><use href="#base-dot" x="126.34" y="111.34" width="2.31" height="2.31"/><use href="#base-dot" x="129.26" y="111.26" width="2.49" height="2.49"/><use href="#base-dot" x="132.17" y="111.17" width="2.66" height="2.66"/><use href="#base-dot" x="135.08" y="111.08" width="2.84" height="2.84"/><use href="#base-dot" x="161.29" y="110.29" width="4.43" height="4.43"/><use href="#base-dot" x="164.20" y="110.20" width="4.61" height="4.61"/><use href="#base-dot" x="170.18" y="110.17" width="4.65" height="4.65"/><use href="#base-dot" x="173.26" y="110.26" width="4.47" height="4.47"/><use href="#base-dot" x="176.35" y="110.35" width="4.30" height="4.30"/><use href="#base-dot" x="179.44" y="110.44" width="4.12" height="4.12"/><use href="#base-dot" x="38.64" y="113.64" width="3.72" height="3.72"/><use href="#base-dot" x="41.56" y="113.56" width="3.88" height="3.88"/><use href="#base-dot" x="44.48" y="113.48" width="4.03" height="4.03"/><use href="#base-dot" x="47.42" y="113.42" width="4.16" height="4.16"/><use href="#base-dot" x="50.34" y="113.34" width="4.32" height="4.32"/><use href="#base-dot" x="53.26" y="113.26" width="4.47" height="4.47"/><use href="#base-dot" x="56.26" y="113.26" width="4.47" height="4.47"/><use href="#base-dot" x="59.34" y="113.34" width="4.32" height="4.32"/><use href="#base-dot" x="62.42" y="113.42" width="4.16" height="4.16"/><use href="#base-dot" x="68.56" y="113.56" width="3.88" height="3.88"/><use href="#base-dot" x="71.64" y="113.64" width="3.72" height="3.72"/><use href="#base-dot" x="77.78" y="113.78" width="3.44" height="3.44"/><use href="#base-dot" x="80.86" y="113.86" width="3.28" height="3.28"/><use href="#base-dot" x="83.94" y="113.94" width="3.13" height="3.13"/><use href="#base-dot" x="87.00" y="114.00" width="3.00" height="3.00"/><use href="#base-dot" x="90.08" y="114.08" width="2.84" height="2.84"/><use href="#base-dot" x="93.16" y="114.16" width="2.69" height="2.69"/><use href="#base-dot" x="117.50" y="114.50" width="2.00" height="2.00"/><use href="#base-dot" x="120.42" y="114.42" width="2.16" height="2.16"/><use href="#base-dot" x="123.36" y="114.36" width="2.29" height="2.29"/><use href="#base-dot" x="126.28" y="114.28" width="2.44" height="2.44"/><use href="#base-dot" x="129.20" y="114.20" width="2.60" height="2.60"/><use href="#base-dot" x="135.06" y="114.06" width="2.89" height="2.89"/><use href="#base-dot" x="137.98" y="113.98" width="3.04" height="3.04"/><use href="#base-dot" x="140.90" y="113.90" width="3.19" height="3.19"/><use href="#base-dot" x="146.76" y="113.76" width="3.48" height="3.48"/><use href="#base-dot" x="152.62" y="113.62" width="3.77" height="3.77"/><use href="#base-dot" x="155.54" y="113.54" width="3.92" height="3.92"/><use href="#base-dot" x="158.46" y="113.46" width="4.08" height="4.08"/><use href="#base-dot" x="161.38" y="113.38" width="4.23" height="4.23"/><use href="#base-dot" x="164.32" y="113.32" width="4.36" height="4.36"/><use href="#base-dot" x="173.36" y="113.36" width="4.28" height="4.28"/><use href="#base-dot" x="176.44" y="113.44" width="4.12" height="4.12"/><use href="#base-dot" x="179.52" y="113.52" width="3.97" height="3.97"/><use href="#base-dot" x="35.75" y="116.75" width="3.50" height="3.50"/><use href="#base-dot" x="38.69" y="116.69" width="3.61" height="3.61"/><use href="#base-dot" x="41.63" y="116.63" width="3.75" height="3.75"/><use href="#base-dot" x="44.57" y="116.57" width="3.86" height="3.86"/><use href="#base-dot" x="47.51" y="116.51" width="3.99" height="3.99"/><use href="#base-dot" x="59.45" y="116.45" width="4.10" height="4.10"/><use href="#base-dot" x="62.51" y="116.51" width="3.99" height="3.99"/><use href="#base-dot" x="71.69" y="116.69" width="3.61" height="3.61"/><use href="#base-dot" x="74.75" y="116.75" width="3.50" height="3.50"/><use href="#base-dot" x="80.87" y="116.87" width="3.26" height="3.26"/><use href="#base-dot" x="83.92" y="116.92" width="3.15" height="3.15"/><use href="#base-dot" x="86.99" y="116.99" width="3.02" height="3.02"/><use href="#base-dot" x="90.05" y="117.05" width="2.91" height="2.91"/><use href="#base-dot" x="93.11" y="117.11" width="2.77" height="2.77"/><use href="#base-dot" x="117.39" y="117.39" width="2.22" height="2.22"/><use href="#base-dot" x="123.27" y="117.27" width="2.47" height="2.47"/><use href="#base-dot" x="126.21" y="117.21" width="2.58" height="2.58"/><use href="#base-dot" x="132.09" y="117.09" width="2.82" height="2.82"/><use href="#base-dot" x="135.04" y="117.04" width="2.93" height="2.93"/><use href="#base-dot" x="140.91" y="116.91" width="3.17" height="3.17"/><use href="#base-dot" x="146.79" y="116.79" width="3.41" height="3.41"/><use href="#base-dot" x="149.73" y="116.73" width="3.55" height="3.55"/><use href="#base-dot" x="152.67" y="116.67" width="3.66" height="3.66"/><use href="#base-dot" x="155.61" y="116.61" width="3.79" height="3.79"/><use href="#base-dot" x="158.55" y="116.55" width="3.90" height="3.90"/><use href="#base-dot" x="161.48" y="116.48" width="4.03" height="4.03"/><use href="#base-dot" x="164.43" y="116.43" width="4.14" height="4.14"/><use href="#base-dot" x="167.36" y="116.36" width="4.28" height="4.28"/><use href="#base-dot" x="173.47" y="116.47" width="4.05" height="4.05"/><use href="#base-dot" x="176.53" y="116.53" width="3.94" height="3.94"/><use href="#base-dot" x="35.79" y="119.79" width="3.41" height="3.41"/><use href="#base-dot" x="38.74" y="119.74" width="3.52" height="3.52"/><use href="#base-dot" x="44.65" y="119.65" width="3.70" height="3.70"/><use href="#base-dot" x="47.61" y="119.61" width="3.79" height="3.79"/><use href="#base-dot" x="50.56" y="119.56" width="3.88" height="3.88"/><use href="#base-dot" x="53.51" y="119.51" width="3.99" height="3.99"/><use href="#base-dot" x="77.84" y="119.84" width="3.33" height="3.33"/><use href="#base-dot" x="83.92" y="119.92" width="3.15" height="3.15"/><use href="#base-dot" x="86.98" y="119.98" width="3.04" height="3.04"/><use href="#base-dot" x="90.02" y="120.02" width="2.95" height="2.95"/><use href="#base-dot" x="93.07" y="120.07" width="2.86" height="2.86"/><use href="#base-dot" x="117.29" y="120.29" width="2.42" height="2.42"/><use href="#base-dot" x="123.19" y="120.19" width="2.62" height="2.62"/><use href="#base-dot" x="126.15" y="120.15" width="2.71" height="2.71"/><use href="#base-dot" x="132.06" y="120.06" width="2.89" height="2.89"/><use href="#base-dot" x="135.00" y="120.00" width="3.00" height="3.00"/><use href="#base-dot" x="140.91" y="119.91" width="3.17" height="3.17"/><use href="#base-dot" x="143.87" y="119.87" width="3.26" height="3.26"/><use href="#base-dot" x="146.81" y="119.81" width="3.37" height="3.37"/><use href="#base-dot" x="152.73" y="119.73" width="3.55" height="3.55"/><use href="#base-dot" x="155.68" y="119.68" width="3.64" height="3.64"/><use href="#base-dot" x="158.64" y="119.64" width="3.72" height="3.72"/><use href="#base-dot" x="161.58" y="119.58" width="3.83" height="3.83"/><use href="#base-dot" x="164.54" y="119.54" width="3.92" height="3.92"/><use href="#base-dot" x="167.49" y="119.49" width="4.01" height="4.01"/><use href="#base-dot" x="170.53" y="119.53" width="3.94" height="3.94"/><use href="#base-dot" x="173.57" y="119.57" width="3.86" height="3.86"/><use href="#base-dot" x="176.62" y="119.62" width="3.77" height="3.77"/><use href="#base-dot" x="179.66" y="119.66" width="3.68" height="3.68"/><use href="#base-dot" x="182.72" y="119.72" width="3.57" height="3.57"/><use href="#base-dot" x="35.83" y="122.83" width="3.35" height="3.35"/><use href="#base-dot" x="38.79" y="122.79" width="3.41" height="3.41"/><use href="#base-dot" x="41.76" y="122.76" width="3.48" height="3.48"/><use href="#base-dot" x="44.73" y="122.73" width="3.55" height="3.55"/><use href="#base-dot" x="47.69" y="122.69" width="3.61" height="3.61"/><use href="#base-dot" x="50.66" y="122.66" width="3.68" height="3.68"/><use href="#base-dot" x="77.86" y="122.86" width="3.28" height="3.28"/><use href="#base-dot" x="89.99" y="122.99" width="3.02" height="3.02"/><use href="#base-dot" x="114.21" y="123.21" width="2.58" height="2.58"/><use href="#base-dot" x="126.08" y="123.08" width="2.84" height="2.84"/><use href="#base-dot" x="129.05" y="123.05" width="2.91" height="2.91"/><use href="#base-dot" x="132.01" y="123.01" width="2.97" height="2.97"/><use href="#base-dot" x="134.98" y="122.98" width="3.04" height="3.04"/><use href="#base-dot" x="137.95" y="122.95" width="3.11" height="3.11"/><use href="#base-dot" x="140.91" y="122.91" width="3.17" height="3.17"/><use href="#base-dot" x="143.88" y="122.88" width="3.24" height="3.24"/><use href="#base-dot" x="146.85" y="122.85" width="3.30" height="3.30"/><use href="#base-dot" x="149.81" y="122.81" width="3.37" height="3.37"/><use href="#base-dot" x="155.75" y="122.75" width="3.50" height="3.50"/><use href="#base-dot" x="158.72" y="122.72" width="3.57" height="3.57"/><use href="#base-dot" x="161.68" y="122.68" width="3.64" height="3.64"/><use href="#base-dot" x="164.65" y="122.65" width="3.70" height="3.70"/><use href="#base-dot" x="167.62" y="122.62" width="3.77" height="3.77"/><use href="#base-dot" x="173.67" y="122.67" width="3.66" height="3.66"/><use href="#base-dot" x="179.74" y="122.74" width="3.52" height="3.52"/><use href="#base-dot" x="182.77" y="122.77" width="3.46" height="3.46"/><use href="#base-dot" x="35.87" y="125.87" width="3.26" height="3.26"/><use href="#base-dot" x="38.85" y="125.85" width="3.30" height="3.30"/><use href="#base-dot" x="41.83" y="125.83" width="3.35" height="3.35"/><use href="#base-dot" x="44.81" y="125.81" width="3.37" height="3.37"/><use href="#base-dot" x="47.79" y="125.79" width="3.41" height="3.41"/><use href="#base-dot" x="50.77" y="125.77" width="3.46" height="3.46"/><use href="#base-dot" x="77.89" y="125.89" width="3.22" height="3.22"/><use href="#base-dot" x="83.92" y="125.92" width="3.15" height="3.15"/><use href="#base-dot" x="89.97" y="125.97" width="3.06" height="3.06"/><use href="#base-dot" x="92.98" y="125.98" width="3.04" height="3.04"/><use href="#base-dot" x="114.09" y="126.09" width="2.82" height="2.82"/><use href="#base-dot" x="117.08" y="126.08" width="2.84" height="2.84"/><use href="#base-dot" x="120.06" y="126.06" width="2.89" height="2.89"/><use href="#base-dot" x="123.04" y="126.04" width="2.93" height="2.93"/><use href="#base-dot" x="137.94" y="125.94" width="3.13" height="3.13"/><use href="#base-dot" x="140.93" y="125.92" width="3.15" height="3.15"/><use href="#base-dot" x="143.90" y="125.90" width="3.19" height="3.19"/><use href="#base-dot" x="146.88" y="125.88" width="3.24" height="3.24"/><use href="#base-dot" x="149.86" y="125.86" width="3.28" height="3.28"/><use href="#base-dot" x="155.83" y="125.83" width="3.35" height="3.35"/><use href="#base-dot" x="158.80" y="125.80" width="3.39" height="3.39"/><use href="#base-dot" x="161.78" y="125.78" width="3.44" height="3.44"/><use href="#base-dot" x="164.77" y="125.77" width="3.46" height="3.46"/><use href="#base-dot" x="167.75" y="125.75" width="3.50" height="3.50"/><use href="#base-dot" x="170.76" y="125.76" width="3.48" height="3.48"/><use href="#base-dot" x="173.78" y="125.78" width="3.44" height="3.44"/><use href="#base-dot" x="176.79" y="125.79" width="3.41" height="3.41"/><use href="#base-dot" x="35.90" y="128.90" width="3.19" height="3.19"/><use href="#base-dot" x="41.89" y="128.89" width="3.22" height="3.22"/><use href="#base-dot" x="44.89" y="128.89" width="3.22" height="3.22"/><use href="#base-dot" x="47.88" y="128.88" width="3.24" height="3.24"/><use href="#base-dot" x="50.88" y="128.88" width="3.24" height="3.24"/><use href="#base-dot" x="77.91" y="128.91" width="3.17" height="3.17"/><use href="#base-dot" x="80.92" y="128.93" width="3.15" height="3.15"/><use href="#base-dot" x="83.92" y="128.93" width="3.15" height="3.15"/><use href="#base-dot" x="86.94" y="128.94" width="3.13" height="3.13"/><use href="#base-dot" x="89.94" y="128.94" width="3.13" height="3.13"/><use href="#base-dot" x="92.95" y="128.95" width="3.11" height="3.11"/><use href="#base-dot" x="113.98" y="128.98" width="3.04" height="3.04"/><use href="#base-dot" x="122.96" y="128.96" width="3.08" height="3.08"/><use href="#base-dot" x="125.95" y="128.95" width="3.11" height="3.11"/><use href="#base-dot" x="128.95" y="128.95" width="3.11" height="3.11"/><use href="#base-dot" x="131.94" y="128.94" width="3.13" height="3.13"/><use href="#base-dot" x="134.94" y="128.94" width="3.13" height="3.13"/><use href="#base-dot" x="137.93" y="128.93" width="3.15" height="3.15"/><use href="#base-dot" x="143.91" y="128.91" width="3.17" height="3.17"/><use href="#base-dot" x="146.91" y="128.91" width="3.17" height="3.17"/><use href="#base-dot" x="152.90" y="128.90" width="3.19" height="3.19"/><use href="#base-dot" x="158.89" y="128.89" width="3.22" height="3.22"/><use href="#base-dot" x="161.88" y="128.88" width="3.24" height="3.24"/><use href="#base-dot" x="164.88" y="128.88" width="3.24" height="3.24"/><use href="#base-dot" x="176.89" y="128.89" width="3.22" height="3.22"/><use href="#base-dot" x="179.89" y="128.89" width="3.22" height="3.22"/><use href="#base-dot" x="185.90" y="128.90" width="3.19" height="3.19"/><use href="#base-dot" x="35.95" y="131.95" width="3.11" height="3.11"/><use href="#base-dot" x="41.97" y="131.97" width="3.06" height="3.06"/><use href="#base-dot" x="47.98" y="131.98" width="3.04" height="3.04"/><use href="#base-dot" x="50.99" y="131.99" width="3.02" height="3.02"/><use href="#base-dot" x="74.95" y="131.95" width="3.11" height="3.11"/><use href="#base-dot" x="77.94" y="131.94" width="3.13" height="3.13"/><use href="#base-dot" x="80.94" y="131.94" width="3.13" height="3.13"/><use href="#base-dot" x="83.92" y="131.93" width="3.15" height="3.15"/><use href="#base-dot" x="86.91" y="131.91" width="3.17" height="3.17"/><use href="#base-dot" x="92.90" y="131.90" width="3.19" height="3.19"/><use href="#base-dot" x="113.86" y="131.86" width="3.28" height="3.28"/><use href="#base-dot" x="116.86" y="131.86" width="3.28" height="3.28"/><use href="#base-dot" x="119.87" y="131.87" width="3.26" height="3.26"/><use href="#base-dot" x="125.89" y="131.89" width="3.22" height="3.22"/><use href="#base-dot" x="128.89" y="131.89" width="3.22" height="3.22"/><use href="#base-dot" x="168.00" y="132.00" width="3.00" height="3.00"/><use href="#base-dot" x="170.99" y="131.99" width="3.02" height="3.02"/><use href="#base-dot" x="173.98" y="131.98" width="3.04" height="3.04"/><use href="#base-dot" x="179.97" y="131.97" width="3.06" height="3.06"/><use href="#base-dot" x="182.96" y="131.96" width="3.08" height="3.08"/><use href="#base-dot" x="185.96" y="131.96" width="3.08" height="3.08"/><use href="#base-dot" x="35.99" y="134.99" width="3.02" height="3.02"/><use href="#base-dot" x="39.01" y="135.01" width="2.97" height="2.97"/><use href="#base-dot" x="45.06" y="135.06" width="2.89" height="2.89"/><use href="#base-dot" x="48.08" y="135.08" width="2.84" height="2.84"/><use href="#base-dot" x="51.10" y="135.10" width="2.80" height="2.80"/><use href="#base-dot" x="54.11" y="135.11" width="2.77" height="2.77"/><use href="#base-dot" x="72.01" y="135.01" width="2.97" height="2.97"/><use href="#base-dot" x="74.99" y="134.99" width="3.02" height="3.02"/><use href="#base-dot" x="77.97" y="134.97" width="3.06" height="3.06"/><use href="#base-dot" x="80.95" y="134.95" width="3.11" height="3.11"/><use href="#base-dot" x="83.92" y="134.93" width="3.15" height="3.15"/><use href="#base-dot" x="86.90" y="134.90" width="3.19" height="3.19"/><use href="#base-dot" x="89.88" y="134.88" width="3.24" height="3.24"/><use href="#base-dot" x="110.73" y="134.73" width="3.55" height="3.55"/><use href="#base-dot" x="113.74" y="134.74" width="3.52" height="3.52"/><use href="#base-dot" x="116.76" y="134.76" width="3.48" height="3.48"/><use href="#base-dot" x="122.80" y="134.80" width="3.39" height="3.39"/><use href="#base-dot" x="125.83" y="134.83" width="3.35" height="3.35"/><use href="#base-dot" x="128.85" y="134.85" width="3.30" height="3.30"/><use href="#base-dot" x="168.12" y="135.12" width="2.75" height="2.75"/><use href="#base-dot" x="174.09" y="135.09" width="2.82" height="2.82"/><use href="#base-dot" x="183.02" y="135.02" width="2.95" height="2.95"/><use href="#base-dot" x="36.02" y="138.02" width="2.95" height="2.95"/><use href="#base-dot" x="39.07" y="138.07" width="2.86" height="2.86"/><use href="#base-dot" x="54.24" y="138.24" width="2.51" height="2.51"/><use href="#base-dot" x="57.24" y="138.24" width="2.51" height="2.51"/><use href="#base-dot" x="60.20" y="138.20" width="2.60" height="2.60"/><use href="#base-dot" x="63.17" y="138.17" width="2.66" height="2.66"/><use href="#base-dot" x="66.13" y="138.13" width="2.73" height="2.73"/><use href="#base-dot" x="69.10" y="138.10" width="2.80" height="2.80"/><use href="#base-dot" x="75.02" y="138.02" width="2.95" height="2.95"/><use href="#base-dot" x="80.96" y="137.96" width="3.08" height="3.08"/><use href="#base-dot" x="83.92" y="137.93" width="3.15" height="3.15"/><use href="#base-dot" x="86.89" y="137.89" width="3.22" height="3.22"/><use href="#base-dot" x="89.85" y="137.85" width="3.30" height="3.30"/><use href="#base-dot" x="92.81" y="137.81" width="3.37" height="3.37"/><use href="#base-dot" x="110.61" y="137.61" width="3.79" height="3.79"/><use href="#base-dot" x="113.62" y="137.62" width="3.77" height="3.77"/><use href="#base-dot" x="116.65" y="137.65" width="3.70" height="3.70"/><use href="#base-dot" x="119.68" y="137.68" width="3.64" height="3.64"/><use href="#base-dot" x="122.73" y="137.73" width="3.55" height="3.55"/><use href="#base-dot" x="125.76" y="137.76" width="3.48" height="3.48"/><use href="#base-dot" x="171.22" y="138.22" width="2.55" height="2.55"/><use href="#base-dot" x="174.19" y="138.19" width="2.62" height="2.62"/><use href="#base-dot" x="177.16" y="138.16" width="2.69" height="2.69"/><use href="#base-dot" x="183.09" y="138.09" width="2.82" height="2.82"/><use href="#base-dot" x="186.05" y="138.05" width="2.91" height="2.91"/><use href="#base-dot" x="189.01" y="138.01" width="2.97" height="2.97"/><use href="#base-dot" x="39.11" y="141.11" width="2.77" height="2.77"/><use href="#base-dot" x="48.27" y="141.27" width="2.47" height="2.47"/><use href="#base-dot" x="54.37" y="141.37" width="2.27" height="2.27"/><use href="#base-dot" x="63.27" y="141.27" width="2.47" height="2.47"/><use href="#base-dot" x="72.11" y="141.11" width="2.77" height="2.77"/><use href="#base-dot" x="75.07" y="141.07" width="2.86" height="2.86"/><use href="#base-dot" x="78.02" y="141.02" width="2.95" height="2.95"/><use href="#base-dot" x="80.97" y="140.97" width="3.06" height="3.06"/><use href="#base-dot" x="92.77" y="140.77" width="3.46" height="3.46"/><use href="#base-dot" x="107.53" y="140.53" width="3.94" height="3.94"/><use href="#base-dot" x="116.55" y="140.55" width="3.90" height="3.90"/><use href="#base-dot" x="119.59" y="140.59" width="3.81" height="3.81"/><use href="#base-dot" x="122.64" y="140.64" width="3.72" height="3.72"/><use href="#base-dot" x="125.69" y="140.69" width="3.61" height="3.61"/><use href="#base-dot" x="171.34" y="141.34" width="2.31" height="2.31"/><use href="#base-dot" x="174.30" y="141.30" width="2.40" height="2.40"/><use href="#base-dot" x="177.24" y="141.24" width="2.51" height="2.51"/><use href="#base-dot" x="180.20" y="141.20" width="2.60" height="2.60"/><use href="#base-dot" x="189.05" y="141.05" width="2.91" height="2.91"/><use href="#base-dot" x="39.17" y="144.17" width="2.66" height="2.66"/><use href="#base-dot" x="42.23" y="144.23" width="2.53" height="2.53"/><use href="#base-dot" x="45.30" y="144.30" width="2.40" height="2.40"/><use href="#base-dot" x="48.36" y="144.36" width="2.29" height="2.29"/><use href="#base-dot" x="57.49" y="144.49" width="2.02" height="2.02"/><use href="#base-dot" x="60.42" y="144.42" width="2.16" height="2.16"/><use href="#base-dot" x="63.36" y="144.36" width="2.29" height="2.29"/><use href="#base-dot" x="66.30" y="144.30" width="2.40" height="2.40"/><use href="#base-dot" x="72.17" y="144.17" width="2.66" height="2.66"/><use href="#base-dot" x="75.11" y="144.11" width="2.77" height="2.77"/><use href="#base-dot" x="78.05" y="144.05" width="2.91" height="2.91"/><use href="#base-dot" x="80.98" y="143.98" width="3.04" height="3.04"/><use href="#base-dot" x="83.92" y="143.93" width="3.15" height="3.15"/><use href="#base-dot" x="86.86" y="143.86" width="3.28" height="3.28"/><use href="#base-dot" x="89.79" y="143.79" width="3.41" height="3.41"/><use href="#base-dot" x="92.74" y="143.74" width="3.52" height="3.52"/><use href="#base-dot" x="107.42" y="143.42" width="4.16" height="4.16"/><use href="#base-dot" x="110.35" y="143.35" width="4.30" height="4.30"/><use href="#base-dot" x="113.37" y="143.37" width="4.25" height="4.25"/><use href="#base-dot" x="116.44" y="143.44" width="4.12" height="4.12"/><use href="#base-dot" x="119.51" y="143.51" width="3.99" height="3.99"/><use href="#base-dot" x="122.56" y="143.56" width="3.88" height="3.88"/><use href="#base-dot" x="125.63" y="143.63" width="3.75" height="3.75"/><use href="#base-dot" x="174.40" y="144.40" width="2.20" height="2.20"/><use href="#base-dot" x="183.21" y="144.21" width="2.58" height="2.58"/><use href="#base-dot" x="186.15" y="144.15" width="2.71" height="2.71"/><use href="#base-dot" x="189.09" y="144.09" width="2.82" height="2.82"/><use href="#base-dot" x="192.02" y="144.02" width="2.95" height="2.95"/><use href="#base-dot" x="57.61" y="147.61" width="1.78" height="1.78"/><use href="#base-dot" x="60.53" y="147.53" width="1.94" height="1.94"/><use href="#base-dot" x="72.22" y="147.22" width="2.55" height="2.55"/><use href="#base-dot" x="80.99" y="146.99" width="3.02" height="3.02"/><use href="#base-dot" x="83.91" y="146.91" width="3.17" height="3.17"/><use href="#base-dot" x="86.85" y="146.85" width="3.30" height="3.30"/><use href="#base-dot" x="89.77" y="146.77" width="3.46" height="3.46"/><use href="#base-dot" x="92.69" y="146.69" width="3.61" height="3.61"/><use href="#base-dot" x="107.31" y="146.31" width="4.39" height="4.39"/><use href="#base-dot" x="110.23" y="146.23" width="4.54" height="4.54"/><use href="#base-dot" x="113.26" y="146.26" width="4.47" height="4.47"/><use href="#base-dot" x="116.33" y="146.33" width="4.34" height="4.34"/><use href="#base-dot" x="119.41" y="146.41" width="4.19" height="4.19"/><use href="#base-dot" x="122.48" y="146.48" width="4.03" height="4.03"/><use href="#base-dot" x="125.56" y="146.56" width="3.88" height="3.88"/><use href="#base-dot" x="177.43" y="147.43" width="2.14" height="2.14"/><use href="#base-dot" x="180.36" y="147.36" width="2.29" height="2.29"/><use href="#base-dot" x="183.28" y="147.28" width="2.44" height="2.44"/><use href="#base-dot" x="186.20" y="147.20" width="2.60" height="2.60"/><use href="#base-dot" x="189.12" y="147.12" width="2.75" height="2.75"/><use href="#base-dot" x="192.05" y="147.05" width="2.91" height="2.91"/><use href="#base-dot" x="48.54" y="150.54" width="1.91" height="1.91"/><use href="#base-dot" x="54.73" y="150.73" width="1.54" height="1.54"/><use href="#base-dot" x="57.73" y="150.73" width="1.54" height="1.54"/><use href="#base-dot" x="66.45" y="150.45" width="2.09" height="2.09"/><use href="#base-dot" x="69.37" y="150.37" width="2.27" height="2.27"/><use href="#base-dot" x="78.10" y="150.10" width="2.80" height="2.80"/><use href="#base-dot" x="81.00" y="150.00" width="3.00" height="3.00"/><use href="#base-dot" x="83.91" y="149.91" width="3.17" height="3.17"/><use href="#base-dot" x="86.83" y="149.83" width="3.35" height="3.35"/><use href="#base-dot" x="89.74" y="149.74" width="3.52" height="3.52"/><use href="#base-dot" x="92.65" y="149.65" width="3.70" height="3.70"/><use href="#base-dot" x="104.29" y="149.29" width="4.43" height="4.43"/><use href="#base-dot" x="107.20" y="149.20" width="4.61" height="4.61"/><use href="#base-dot" x="110.11" y="149.11" width="4.78" height="4.78"/><use href="#base-dot" x="113.14" y="149.14" width="4.72" height="4.72"/><use href="#base-dot" x="119.32" y="149.32" width="4.36" height="4.36"/><use href="#base-dot" x="122.41" y="149.41" width="4.19" height="4.19"/><use href="#base-dot" x="174.61" y="150.61" width="1.78" height="1.78"/><use href="#base-dot" x="186.24" y="150.24" width="2.51" height="2.51"/><use href="#base-dot" x="189.16" y="150.16" width="2.69" height="2.69"/></svg>